<svg width="61" height="61" viewBox="0 0 61 61" fill="none" xmlns="http://www.w3.org/2000/svg">
<rect width="61" height="61" fill="#003B95"/>
<path d="M18.5715 42V23.024H11.5955V19.664H29.5475V23.024H22.5715V42H18.5715ZM45.88 32.336V30.128C45.88 29.2533 45.6133 28.5493 45.08 28.016C44.568 27.4613 43.8213 27.184 42.84 27.184C41.6453 27.184 40.5573 27.6213 39.576 28.496C38.5947 29.3707 37.7733 30.7467 37.112 32.624L36.632 29.04C37.1227 27.9307 37.6987 27.0027 38.36 26.256C39.0427 25.488 39.8107 24.912 40.664 24.528C41.5387 24.144 42.488 23.952 43.512 23.952C45.3253 23.952 46.808 24.4853 47.96 25.552C49.112 26.6187 49.688 28.144 49.688 30.128V32.336H45.88ZM33.976 42V24.336H37.592L37.784 28.08V42H33.976Z" fill="white"/>
</svg>
